G04 #@! TF.GenerationSoftware,KiCad,Pcbnew,(5.1.5)-3*
G04 #@! TF.CreationDate,2020-12-04T16:21:17+08:00*
G04 #@! TF.ProjectId,switch breakout,73776974-6368-4206-9272-65616b6f7574,rev?*
G04 #@! TF.SameCoordinates,Original*
G04 #@! TF.FileFunction,Paste,Bot*
G04 #@! TF.FilePolarity,Positive*
%FSLAX46Y46*%
G04 Gerber Fmt 4.6, Leading zero omitted, Abs format (unit mm)*
G04 Created by KiCad (PCBNEW (5.1.5)-3) date 2020-12-04 16:21:17*
%MOMM*%
%LPD*%
G04 APERTURE LIST*
%ADD10R,2.550000X2.500000*%
%ADD11R,1.600000X1.200000*%
G04 APERTURE END LIST*
D10*
X74872251Y-22503750D03*
X87799251Y-19963750D03*
X68368251Y-97179750D03*
X55441251Y-99719750D03*
X48937251Y-97179750D03*
X36010251Y-99719750D03*
X107230251Y-97179750D03*
X94303251Y-99719750D03*
D11*
X61126251Y-110140750D03*
X63926251Y-110140750D03*
X41695251Y-110140750D03*
X44495251Y-110140750D03*
X99988251Y-110140750D03*
X102788251Y-110140750D03*
D10*
X74872251Y-99719750D03*
X87799251Y-97179750D03*
X16579251Y-99719750D03*
X29506251Y-97179750D03*
D11*
X25059000Y-110140750D03*
X22259000Y-110140750D03*
X83357251Y-110140750D03*
X80557251Y-110140750D03*
X61126251Y-90868500D03*
X63926251Y-90868500D03*
D10*
X55441251Y-61111750D03*
X68368251Y-58571750D03*
X68368251Y-77907500D03*
X55441251Y-80447500D03*
D11*
X63926251Y-71532750D03*
X61126251Y-71532750D03*
D10*
X16579251Y-80447500D03*
X29506251Y-77907500D03*
D11*
X25059000Y-90868500D03*
X22259000Y-90868500D03*
D10*
X48937251Y-77907500D03*
X36010251Y-80447500D03*
D11*
X41695251Y-90868500D03*
X44495251Y-90868500D03*
D10*
X36010251Y-61111750D03*
X48937251Y-58571750D03*
D11*
X44495251Y-71532750D03*
X41695251Y-71532750D03*
X99988251Y-90868500D03*
X102788251Y-90868500D03*
D10*
X94303251Y-61111750D03*
X107230251Y-58571750D03*
X107230251Y-77907500D03*
X94303251Y-80447500D03*
D11*
X102788251Y-71532750D03*
X99988251Y-71532750D03*
X83357251Y-90868500D03*
X80557251Y-90868500D03*
D10*
X74872251Y-80447500D03*
X87799251Y-77907500D03*
X87799251Y-58571750D03*
X74872251Y-61111750D03*
D11*
X80557251Y-71532750D03*
X83357251Y-71532750D03*
X22259000Y-71532750D03*
X25059000Y-71532750D03*
D10*
X29506251Y-58571750D03*
X16579251Y-61111750D03*
D11*
X102788251Y-52260500D03*
X99988251Y-52260500D03*
D10*
X94303251Y-41839500D03*
X107230251Y-39299500D03*
X107230251Y-19963750D03*
X94303251Y-22503750D03*
D11*
X99988251Y-32924750D03*
X102788251Y-32924750D03*
X80557251Y-52260500D03*
X83357251Y-52260500D03*
D10*
X87799251Y-39299500D03*
X74872251Y-41839500D03*
D11*
X83357251Y-32924750D03*
X80557251Y-32924750D03*
D10*
X68368251Y-19963750D03*
X55441251Y-22503750D03*
D11*
X63926251Y-52260500D03*
X61126251Y-52260500D03*
D10*
X55441251Y-41839500D03*
X68368251Y-39299500D03*
D11*
X61126251Y-32924750D03*
X63926251Y-32924750D03*
D10*
X36010251Y-41839500D03*
X48937251Y-39299500D03*
D11*
X44495251Y-52260500D03*
X41695251Y-52260500D03*
X22259000Y-52260500D03*
X25059000Y-52260500D03*
D10*
X29506251Y-39299500D03*
X16579251Y-41839500D03*
D11*
X41695251Y-32924750D03*
X44495251Y-32924750D03*
D10*
X48937251Y-19963750D03*
X36010251Y-22503750D03*
X16579251Y-22503750D03*
X29506251Y-19963750D03*
D11*
X25059000Y-32924750D03*
X22259000Y-32924750D03*
M02*
