M48
; DRILL file {KiCad (5.1.5)-3} date 04/12/2020 16.21.28
; FORMAT={-:-/ absolute / metric / decimal}
; #@! TF.CreationDate,2020-12-04T16:21:28+08:00
; #@! TF.GenerationSoftware,Kicad,Pcbnew,(5.1.5)-3
; #@! TF.FileFunction,NonPlated,1,2,NPTH
FMAT,2
METRIC
T1C0.787
T2C1.750
T3C3.000
T4C3.988
%
G90
G05
T2
X57.446Y-44.38
X67.606Y-44.38
X76.877Y-102.26
X87.037Y-102.26
X38.015Y-25.044
X48.175Y-25.044
X38.015Y-102.26
X48.175Y-102.26
X38.015Y-44.38
X48.175Y-44.38
X96.308Y-82.987
X106.468Y-82.987
X96.308Y-102.26
X106.468Y-102.26
X57.446Y-82.987
X67.606Y-82.987
X38.015Y-82.987
X48.175Y-82.987
X57.446Y-102.26
X67.606Y-102.26
X57.446Y-25.044
X67.606Y-25.044
X57.446Y-44.38
X67.606Y-44.38
X76.877Y-63.652
X87.037Y-63.652
X96.308Y-63.652
X106.468Y-63.652
X57.446Y-82.987
X67.606Y-82.987
X18.584Y-82.987
X28.744Y-82.987
X76.877Y-82.987
X87.037Y-82.987
X76.877Y-44.38
X87.037Y-44.38
X38.015Y-102.26
X48.175Y-102.26
X38.015Y-25.044
X48.175Y-25.044
X76.877Y-82.987
X87.037Y-82.987
X38.015Y-63.652
X48.175Y-63.652
X18.584Y-102.26
X28.744Y-102.26
X57.446Y-25.044
X67.606Y-25.044
X76.877Y-102.26
X87.037Y-102.26
X18.584Y-63.652
X28.744Y-63.652
X38.015Y-63.652
X48.175Y-63.652
X96.308Y-44.38
X106.468Y-44.38
X96.308Y-63.652
X106.468Y-63.652
X18.584Y-44.38
X28.744Y-44.38
X96.308Y-82.987
X106.468Y-82.987
X18.584Y-25.044
X28.744Y-25.044
X57.446Y-63.652
X67.606Y-63.652
X96.308Y-25.044
X106.468Y-25.044
X76.877Y-25.044
X87.037Y-25.044
X96.308Y-25.044
X106.468Y-25.044
X18.584Y-25.044
X28.744Y-25.044
X96.308Y-102.26
X106.468Y-102.26
X57.446Y-63.652
X67.606Y-63.652
X18.584Y-82.987
X28.744Y-82.987
X18.584Y-102.26
X28.744Y-102.26
X18.584Y-44.38
X28.744Y-44.38
X38.015Y-82.987
X48.175Y-82.987
X76.877Y-63.652
X87.037Y-63.652
X76.877Y-25.044
X87.037Y-25.044
X57.446Y-102.26
X67.606Y-102.26
X96.308Y-44.38
X106.468Y-44.38
X18.584Y-63.652
X28.744Y-63.652
X76.877Y-44.38
X87.037Y-44.38
X38.015Y-44.38
X48.175Y-44.38
T3
X78.147Y-80.447
X84.497Y-77.907
X39.285Y-61.112
X45.635Y-58.572
X58.716Y-22.504
X65.066Y-19.964
X97.578Y-41.84
X103.928Y-39.299
X19.854Y-22.504
X26.204Y-19.964
X97.578Y-22.504
X103.928Y-19.964
X97.578Y-99.72
X103.928Y-97.18
X58.716Y-61.112
X65.066Y-58.572
X19.854Y-99.72
X26.204Y-97.18
X19.854Y-41.84
X26.204Y-39.299
X39.285Y-80.447
X45.635Y-77.907
X78.147Y-22.504
X84.497Y-19.964
X58.716Y-99.72
X65.066Y-97.18
X19.854Y-61.112
X26.204Y-58.572
X78.147Y-99.72
X84.497Y-97.18
X39.285Y-99.72
X45.635Y-97.18
X39.285Y-41.84
X45.635Y-39.299
X97.578Y-80.447
X103.928Y-77.907
X58.716Y-80.447
X65.066Y-77.907
X58.716Y-41.84
X65.066Y-39.299
X78.147Y-61.112
X84.497Y-58.572
X97.578Y-61.112
X103.928Y-58.572
X19.854Y-80.447
X26.204Y-77.907
X78.147Y-41.84
X84.497Y-39.299
X39.285Y-22.504
X45.635Y-19.964
T4
X23.664Y-44.38
X43.095Y-82.987
X81.957Y-63.652
X81.957Y-25.044
X62.526Y-102.26
X101.388Y-44.38
X23.664Y-63.652
X81.957Y-44.38
X43.095Y-44.38
X62.526Y-44.38
X81.957Y-102.26
X43.095Y-25.044
X43.095Y-102.26
X43.095Y-44.38
X101.388Y-82.987
X101.388Y-102.26
X62.526Y-82.987
X43.095Y-82.987
X62.526Y-102.26
X62.526Y-25.044
X62.526Y-44.38
X81.957Y-63.652
X101.388Y-63.652
X62.526Y-82.987
X23.664Y-82.987
X81.957Y-82.987
X81.957Y-44.38
X43.095Y-102.26
X43.095Y-25.044
X81.957Y-82.987
X43.095Y-63.652
X23.664Y-102.26
X62.526Y-25.044
X81.957Y-102.26
X23.664Y-63.652
X43.095Y-63.652
X101.388Y-44.38
X101.388Y-63.652
X23.664Y-44.38
X101.388Y-82.987
X23.664Y-25.044
X62.526Y-63.652
X101.388Y-25.044
X81.957Y-25.044
X101.388Y-25.044
X23.664Y-25.044
X101.388Y-102.26
X62.526Y-63.652
X23.664Y-82.987
X23.664Y-102.26
T1
G00X41.857Y-73.279
M15
G01X24.945Y-73.279
M16
G05
G00X41.857Y-54.038
M15
G01X24.945Y-54.038
M16
G05
G00X33.401Y-37.938
M15
G01X33.401Y-51.151
M16
G05
G00X33.401Y-95.819
M15
G01X33.401Y-109.031
M16
G05
G00X33.401Y-76.546
M15
G01X33.401Y-89.759
M16
G05
G00X52.832Y-95.819
M15
G01X52.832Y-109.031
M16
G05
G00X100.15Y-34.703
M15
G01X83.238Y-34.703
M16
G05
G00X22.365Y-54.038
M15
G01X17.153Y-54.038
M16
G05
G00X61.288Y-54.038
M15
G01X44.376Y-54.038
M16
G05
G00X72.263Y-76.546
M15
G01X72.263Y-89.759
M16
G05
G00X33.401Y-57.211
M15
G01X33.401Y-70.423
M16
G05
G00X61.288Y-34.703
M15
G01X44.376Y-34.703
M16
G05
G00X41.857Y-92.646
M15
G01X24.945Y-92.646
M16
G05
G00X22.365Y-34.703
M15
G01X17.153Y-34.703
M16
G05
G00X61.288Y-92.646
M15
G01X44.376Y-92.646
M16
G05
G00X91.694Y-18.603
M15
G01X91.694Y-31.815
M16
G05
G00X80.719Y-54.038
M15
G01X63.807Y-54.038
M16
G05
G00X91.694Y-57.211
M15
G01X91.694Y-70.423
M16
G05
G00X52.832Y-57.211
M15
G01X52.832Y-70.423
M16
G05
G00X91.694Y-76.546
M15
G01X91.694Y-89.759
M16
G05
G00X80.719Y-34.703
M15
G01X63.807Y-34.703
M16
G05
G00X107.895Y-34.703
M15
G01X102.682Y-34.703
M16
G05
G00X22.365Y-92.646
M15
G01X17.153Y-92.646
M16
G05
G00X107.895Y-92.646
M15
G01X102.682Y-92.646
M16
G05
G00X80.719Y-92.646
M15
G01X63.807Y-92.646
M16
G05
G00X100.15Y-92.646
M15
G01X83.238Y-92.646
M16
G05
G00X33.401Y-18.603
M15
G01X33.401Y-31.815
M16
G05
G00X100.15Y-54.038
M15
G01X83.238Y-54.038
M16
G05
G00X52.832Y-76.546
M15
G01X52.832Y-89.759
M16
G05
G00X72.263Y-18.603
M15
G01X72.263Y-31.815
M16
G05
G00X107.895Y-54.038
M15
G01X102.682Y-54.038
M16
G05
G00X52.832Y-18.603
M15
G01X52.832Y-31.815
M16
G05
G00X52.832Y-37.938
M15
G01X52.832Y-51.151
M16
G05
G00X72.263Y-57.211
M15
G01X72.263Y-70.423
M16
G05
G00X41.857Y-34.703
M15
G01X24.945Y-34.703
M16
G05
G00X91.694Y-95.819
M15
G01X91.694Y-109.031
M16
G05
G00X61.288Y-73.279
M15
G01X44.376Y-73.279
M16
G05
G00X91.694Y-37.938
M15
G01X91.694Y-51.151
M16
G05
G00X69.033Y-34.703
M15
G01X63.82Y-34.703
M16
G05
G00X100.15Y-73.279
M15
G01X83.238Y-73.279
M16
G05
G00X72.263Y-37.938
M15
G01X72.263Y-51.151
M16
G05
G00X72.263Y-95.819
M15
G01X72.263Y-109.031
M16
G05
G00X107.895Y-73.279
M15
G01X102.682Y-73.279
M16
G05
G00X22.365Y-73.279
M15
G01X17.153Y-73.279
M16
G05
G00X80.719Y-73.279
M15
G01X63.807Y-73.279
M16
G05
T0
M30
