M48
; DRILL file {KiCad (5.1.5)-3} date 04/12/2020 16.21.28
; FORMAT={-:-/ absolute / metric / decimal}
; #@! TF.CreationDate,2020-12-04T16:21:28+08:00
; #@! TF.GenerationSoftware,Kicad,Pcbnew,(5.1.5)-3
; #@! TF.FileFunction,Plated,1,2,PTH
FMAT,2
METRIC
T1C1.000
T2C1.470
%
G90
G05
T1
X54.356Y-91.44
X51.308Y-33.496
X70.739Y-72.104
X19.759Y-90.868
X27.559Y-90.868
X70.993Y-64.412
X15.24Y-83.748
X51.308Y-55.213
X78.057Y-52.261
X85.857Y-52.261
X58.626Y-90.868
X66.426Y-90.868
X70.993Y-103.02
X97.488Y-52.261
X105.288Y-52.261
X15.494Y-91.44
X109.855Y-45.14
X90.17Y-74.549
X73.533Y-25.804
X109.855Y-103.02
X92.964Y-25.804
X90.17Y-35.941
X54.102Y-83.748
X34.671Y-25.804
X92.964Y-64.412
X32.131Y-45.14
X90.17Y-72.104
X73.787Y-91.44
X15.494Y-110.712
X51.308Y-91.44
X34.671Y-72.104
X70.993Y-83.748
X51.562Y-83.748
X34.671Y-64.412
X70.993Y-45.14
X32.131Y-103.02
X90.424Y-64.412
X109.601Y-35.941
X54.356Y-93.821
X15.494Y-55.213
X73.787Y-33.496
X73.787Y-110.712
X54.102Y-25.804
X15.494Y-93.821
X31.877Y-35.941
X34.671Y-93.821
X34.671Y-45.14
X51.562Y-25.804
X54.102Y-103.02
X39.195Y-32.925
X46.995Y-32.925
X32.131Y-25.804
X109.855Y-64.412
X15.494Y-52.832
X51.308Y-35.941
X54.356Y-55.213
X109.601Y-74.549
X34.671Y-83.748
X51.308Y-72.104
X90.17Y-93.821
X15.494Y-74.549
X92.964Y-45.14
X58.626Y-52.261
X66.426Y-52.261
X70.739Y-55.213
X51.562Y-64.412
X109.601Y-91.44
X54.356Y-16.605
X54.102Y-45.14
X93.218Y-33.496
X51.308Y-93.821
X54.356Y-35.941
X93.218Y-52.832
X73.533Y-103.02
X19.759Y-32.925
X27.559Y-32.925
X39.195Y-52.261
X46.995Y-52.261
X31.877Y-16.605
X93.218Y-55.213
X34.671Y-110.712
X93.218Y-91.44
X93.218Y-93.821
X15.494Y-16.605
X93.218Y-74.549
X51.308Y-52.832
X51.308Y-16.605
X54.356Y-74.549
X51.308Y-74.549
X34.671Y-74.549
X34.925Y-55.213
X97.488Y-32.925
X105.288Y-32.925
X70.739Y-93.821
X90.424Y-45.14
X54.356Y-33.496
X109.855Y-25.804
X70.739Y-33.496
X32.131Y-64.412
X31.877Y-72.104
X31.877Y-110.712
X109.601Y-33.496
X15.494Y-35.941
X15.494Y-33.496
X51.562Y-103.02
X34.671Y-103.02
X34.925Y-16.605
X109.601Y-72.104
X54.356Y-72.104
X73.787Y-74.549
X92.964Y-83.748
X78.057Y-110.141
X85.857Y-110.141
X34.671Y-91.44
X39.195Y-90.868
X46.995Y-90.868
X31.877Y-93.821
X78.057Y-71.533
X85.857Y-71.533
X31.877Y-91.44
X78.057Y-32.925
X85.857Y-32.925
X90.17Y-91.44
X73.787Y-35.941
X70.739Y-16.605
X90.17Y-110.712
X109.601Y-52.832
X54.356Y-52.832
X15.24Y-103.02
X90.424Y-25.804
X92.964Y-103.02
X109.601Y-110.712
X34.925Y-35.941
X93.218Y-72.104
X51.562Y-45.14
X97.488Y-90.868
X105.288Y-90.868
X15.24Y-45.14
X31.877Y-33.496
X70.739Y-91.44
X31.877Y-52.832
X90.17Y-55.213
X54.102Y-64.412
X73.787Y-55.213
X78.057Y-90.868
X85.857Y-90.868
X31.877Y-74.549
X32.131Y-83.748
X90.17Y-33.496
X90.424Y-103.02
X70.739Y-110.712
X90.17Y-52.832
X73.533Y-83.748
X15.24Y-64.412
X90.17Y-16.605
X70.739Y-35.941
X90.424Y-83.748
X93.218Y-35.941
X70.739Y-52.832
X70.739Y-74.549
X97.488Y-110.141
X105.288Y-110.141
X73.787Y-16.605
X93.218Y-16.605
X39.195Y-110.141
X46.995Y-110.141
X34.925Y-52.832
X109.855Y-83.748
X54.356Y-110.712
X19.759Y-52.261
X27.559Y-52.261
X109.601Y-55.213
X73.787Y-72.104
X58.626Y-71.533
X66.426Y-71.533
X39.195Y-71.533
X46.995Y-71.533
X19.759Y-110.141
X27.559Y-110.141
X70.993Y-25.804
X58.626Y-32.925
X66.426Y-32.925
X19.759Y-71.533
X27.559Y-71.533
X109.601Y-16.605
X73.533Y-45.14
X15.494Y-72.104
X109.601Y-93.821
X73.787Y-52.832
X73.533Y-64.412
X93.218Y-110.712
X31.877Y-55.213
X73.787Y-93.821
X34.925Y-33.496
X15.24Y-25.804
X51.308Y-110.712
X97.488Y-71.533
X105.288Y-71.533
X58.626Y-110.141
X66.426Y-110.141
T2
X21.124Y-88.067
X27.474Y-85.527
X79.417Y-68.732
X85.767Y-66.192
X98.848Y-49.459
X105.198Y-46.919
X79.417Y-49.459
X85.767Y-46.919
X40.555Y-49.459
X46.905Y-46.919
X59.986Y-49.459
X66.336Y-46.919
X40.555Y-30.124
X46.905Y-27.584
X98.848Y-107.34
X105.198Y-104.8
X40.555Y-88.067
X46.905Y-85.527
X59.986Y-107.34
X66.336Y-104.8
X59.986Y-30.124
X66.336Y-27.584
X59.986Y-88.067
X66.336Y-85.527
X79.417Y-88.067
X85.767Y-85.527
X40.555Y-107.34
X46.905Y-104.8
X21.124Y-107.34
X27.474Y-104.8
X79.417Y-107.34
X85.767Y-104.8
X21.124Y-68.732
X27.474Y-66.192
X40.555Y-68.732
X46.905Y-66.192
X98.848Y-68.732
X105.198Y-66.192
X21.124Y-49.459
X27.474Y-46.919
X98.848Y-88.067
X105.198Y-85.527
X59.986Y-68.732
X66.336Y-66.192
X79.417Y-30.124
X85.767Y-27.584
X98.848Y-30.124
X105.198Y-27.584
X21.124Y-30.124
X27.474Y-27.584
T0
M30
