G04 #@! TF.GenerationSoftware,KiCad,Pcbnew,(5.1.5)-3*
G04 #@! TF.CreationDate,2020-12-04T16:21:17+08:00*
G04 #@! TF.ProjectId,switch breakout,73776974-6368-4206-9272-65616b6f7574,rev?*
G04 #@! TF.SameCoordinates,Original*
G04 #@! TF.FileFunction,Legend,Top*
G04 #@! TF.FilePolarity,Positive*
%FSLAX46Y46*%
G04 Gerber Fmt 4.6, Leading zero omitted, Abs format (unit mm)*
G04 Created by KiCad (PCBNEW (5.1.5)-3) date 2020-12-04 16:21:17*
%MOMM*%
%LPD*%
G04 APERTURE LIST*
%ADD10O,0.889400X14.102000*%
%ADD11O,17.802000X0.889400*%
%ADD12C,3.102000*%
%ADD13C,4.089800*%
%ADD14C,1.852000*%
%ADD15O,6.102000X0.889400*%
%ADD16R,1.702000X1.702000*%
%ADD17C,1.702000*%
G04 APERTURE END LIST*
%LPC*%
D10*
X33401000Y-63817000D03*
X72263000Y-25209000D03*
X91694000Y-25209000D03*
X33401000Y-25209000D03*
X52832000Y-25209000D03*
X91694000Y-44544750D03*
X72263000Y-44544750D03*
X33401000Y-44544750D03*
X52832000Y-44544750D03*
X72263000Y-63817000D03*
X52832000Y-63817000D03*
X91694000Y-63817000D03*
X72263000Y-83152750D03*
X33401000Y-83152750D03*
X52832000Y-83152750D03*
X91694000Y-83152750D03*
X33401000Y-102425000D03*
X52832000Y-102425000D03*
X72263000Y-102425000D03*
X91694000Y-102425000D03*
D11*
X33401000Y-92646500D03*
X52832000Y-92646500D03*
X91694000Y-92646500D03*
X72263000Y-92646500D03*
X33401000Y-73279000D03*
X52832000Y-73279000D03*
X72263000Y-73279000D03*
X91694000Y-73279000D03*
X33401000Y-54038500D03*
X52832000Y-54038500D03*
X72263000Y-54038500D03*
X91694000Y-54038500D03*
X33401000Y-34702750D03*
X52832000Y-34702750D03*
X72263000Y-34702750D03*
X91694000Y-34702750D03*
D12*
X84497251Y-19963750D03*
D13*
X81957251Y-25043750D03*
D12*
X78147251Y-22503750D03*
D14*
X76877251Y-25043750D03*
X87037251Y-25043750D03*
D15*
X19759000Y-92646500D03*
X105288251Y-92646500D03*
X19759000Y-34702750D03*
X66426251Y-34702750D03*
X105288251Y-34702750D03*
X19759000Y-54038500D03*
X105288251Y-54038500D03*
X19759000Y-73279000D03*
X105288251Y-73279000D03*
D13*
X62526251Y-102259750D03*
D14*
X67606251Y-102259750D03*
X57446251Y-102259750D03*
X67606251Y-102259750D03*
X57446251Y-102259750D03*
D12*
X58716251Y-99719750D03*
D13*
X62526251Y-102259750D03*
D12*
X65066251Y-97179750D03*
D14*
X48175251Y-102259750D03*
X38015251Y-102259750D03*
D12*
X39285251Y-99719750D03*
D13*
X43095251Y-102259750D03*
D12*
X45635251Y-97179750D03*
D14*
X106468251Y-102259750D03*
X96308251Y-102259750D03*
D12*
X97578251Y-99719750D03*
D13*
X101388251Y-102259750D03*
D12*
X103928251Y-97179750D03*
D13*
X101388251Y-102259750D03*
D14*
X106468251Y-102259750D03*
X96308251Y-102259750D03*
D16*
X66426251Y-110140750D03*
D17*
X58626251Y-110140750D03*
D16*
X46995251Y-110140750D03*
D17*
X39195251Y-110140750D03*
D13*
X43095251Y-102259750D03*
D14*
X48175251Y-102259750D03*
X38015251Y-102259750D03*
D16*
X105288251Y-110140750D03*
D17*
X97488251Y-110140750D03*
D12*
X84497251Y-97179750D03*
D13*
X81957251Y-102259750D03*
D12*
X78147251Y-99719750D03*
D14*
X76877251Y-102259750D03*
X87037251Y-102259750D03*
D12*
X26204251Y-97179750D03*
D13*
X23664251Y-102259750D03*
D12*
X19854251Y-99719750D03*
D14*
X18584251Y-102259750D03*
X28744251Y-102259750D03*
X76877251Y-102259750D03*
X87037251Y-102259750D03*
D13*
X81957251Y-102259750D03*
D14*
X18584251Y-102259750D03*
X28744251Y-102259750D03*
D13*
X23664251Y-102259750D03*
D17*
X19759000Y-110140750D03*
D16*
X27559000Y-110140750D03*
D17*
X78057251Y-110140750D03*
D16*
X85857251Y-110140750D03*
X66426251Y-90868500D03*
D17*
X58626251Y-90868500D03*
D14*
X57446251Y-63651750D03*
X67606251Y-63651750D03*
D13*
X62526251Y-63651750D03*
D12*
X65066251Y-58571750D03*
D13*
X62526251Y-63651750D03*
D12*
X58716251Y-61111750D03*
D14*
X57446251Y-63651750D03*
X67606251Y-63651750D03*
X67606251Y-82987500D03*
X57446251Y-82987500D03*
D12*
X58716251Y-80447500D03*
D13*
X62526251Y-82987500D03*
D12*
X65066251Y-77907500D03*
D13*
X62526251Y-82987500D03*
D14*
X67606251Y-82987500D03*
X57446251Y-82987500D03*
D17*
X58626251Y-71532750D03*
D16*
X66426251Y-71532750D03*
D12*
X26204251Y-77907500D03*
D13*
X23664251Y-82987500D03*
D12*
X19854251Y-80447500D03*
D14*
X18584251Y-82987500D03*
X28744251Y-82987500D03*
D17*
X19759000Y-90868500D03*
D16*
X27559000Y-90868500D03*
D14*
X48175251Y-82987500D03*
X38015251Y-82987500D03*
D12*
X39285251Y-80447500D03*
D13*
X43095251Y-82987500D03*
D12*
X45635251Y-77907500D03*
D13*
X43095251Y-82987500D03*
D14*
X48175251Y-82987500D03*
X38015251Y-82987500D03*
D16*
X46995251Y-90868500D03*
D17*
X39195251Y-90868500D03*
D14*
X18584251Y-82987500D03*
X28744251Y-82987500D03*
D13*
X23664251Y-82987500D03*
D12*
X45635251Y-58571750D03*
D13*
X43095251Y-63651750D03*
D12*
X39285251Y-61111750D03*
D14*
X38015251Y-63651750D03*
X48175251Y-63651750D03*
X38015251Y-63651750D03*
X48175251Y-63651750D03*
D13*
X43095251Y-63651750D03*
D17*
X39195251Y-71532750D03*
D16*
X46995251Y-71532750D03*
X105288251Y-90868500D03*
D17*
X97488251Y-90868500D03*
D13*
X101388251Y-82987500D03*
D14*
X106468251Y-82987500D03*
X96308251Y-82987500D03*
X96308251Y-63651750D03*
X106468251Y-63651750D03*
D13*
X101388251Y-63651750D03*
D12*
X103928251Y-58571750D03*
D13*
X101388251Y-63651750D03*
D12*
X97578251Y-61111750D03*
D14*
X96308251Y-63651750D03*
X106468251Y-63651750D03*
X106468251Y-82987500D03*
X96308251Y-82987500D03*
D12*
X97578251Y-80447500D03*
D13*
X101388251Y-82987500D03*
D12*
X103928251Y-77907500D03*
D17*
X97488251Y-71532750D03*
D16*
X105288251Y-71532750D03*
D17*
X78057251Y-90868500D03*
D16*
X85857251Y-90868500D03*
D14*
X76877251Y-82987500D03*
X87037251Y-82987500D03*
D13*
X81957251Y-82987500D03*
X81957251Y-63651750D03*
D14*
X87037251Y-63651750D03*
X76877251Y-63651750D03*
D12*
X84497251Y-77907500D03*
D13*
X81957251Y-82987500D03*
D12*
X78147251Y-80447500D03*
D14*
X76877251Y-82987500D03*
X87037251Y-82987500D03*
X87037251Y-63651750D03*
X76877251Y-63651750D03*
D12*
X78147251Y-61111750D03*
D13*
X81957251Y-63651750D03*
D12*
X84497251Y-58571750D03*
D16*
X85857251Y-71532750D03*
D17*
X78057251Y-71532750D03*
D16*
X27559000Y-71532750D03*
D17*
X19759000Y-71532750D03*
D14*
X28744251Y-63651750D03*
X18584251Y-63651750D03*
D12*
X19854251Y-61111750D03*
D13*
X23664251Y-63651750D03*
D12*
X26204251Y-58571750D03*
D13*
X23664251Y-63651750D03*
D14*
X28744251Y-63651750D03*
X18584251Y-63651750D03*
D17*
X97488251Y-52260500D03*
D16*
X105288251Y-52260500D03*
D14*
X96308251Y-44379500D03*
X106468251Y-44379500D03*
D13*
X101388251Y-44379500D03*
X101388251Y-25043750D03*
D14*
X106468251Y-25043750D03*
X96308251Y-25043750D03*
D12*
X103928251Y-39299500D03*
D13*
X101388251Y-44379500D03*
D12*
X97578251Y-41839500D03*
D14*
X96308251Y-44379500D03*
X106468251Y-44379500D03*
X106468251Y-25043750D03*
X96308251Y-25043750D03*
D12*
X97578251Y-22503750D03*
D13*
X101388251Y-25043750D03*
D12*
X103928251Y-19963750D03*
D16*
X105288251Y-32924750D03*
D17*
X97488251Y-32924750D03*
D16*
X85857251Y-52260500D03*
D17*
X78057251Y-52260500D03*
D14*
X76877251Y-25043750D03*
X87037251Y-25043750D03*
D13*
X81957251Y-25043750D03*
D14*
X87037251Y-44379500D03*
X76877251Y-44379500D03*
D12*
X78147251Y-41839500D03*
D13*
X81957251Y-44379500D03*
D12*
X84497251Y-39299500D03*
D13*
X81957251Y-44379500D03*
D14*
X87037251Y-44379500D03*
X76877251Y-44379500D03*
D17*
X78057251Y-32924750D03*
D16*
X85857251Y-32924750D03*
D13*
X62526251Y-25043750D03*
D14*
X67606251Y-25043750D03*
X57446251Y-25043750D03*
X67606251Y-25043750D03*
X57446251Y-25043750D03*
D12*
X58716251Y-22503750D03*
D13*
X62526251Y-25043750D03*
D12*
X65066251Y-19963750D03*
D17*
X58626251Y-52260500D03*
D16*
X66426251Y-52260500D03*
D12*
X65066251Y-39299500D03*
D13*
X62526251Y-44379500D03*
D12*
X58716251Y-41839500D03*
D14*
X57446251Y-44379500D03*
X67606251Y-44379500D03*
X57446251Y-44379500D03*
X67606251Y-44379500D03*
D13*
X62526251Y-44379500D03*
D16*
X66426251Y-32924750D03*
D17*
X58626251Y-32924750D03*
D12*
X45635251Y-39299500D03*
D13*
X43095251Y-44379500D03*
D12*
X39285251Y-41839500D03*
D14*
X38015251Y-44379500D03*
X48175251Y-44379500D03*
X38015251Y-44379500D03*
X48175251Y-44379500D03*
D13*
X43095251Y-44379500D03*
D17*
X39195251Y-52260500D03*
D16*
X46995251Y-52260500D03*
X27559000Y-52260500D03*
D17*
X19759000Y-52260500D03*
D14*
X28744251Y-44379500D03*
X18584251Y-44379500D03*
D12*
X19854251Y-41839500D03*
D13*
X23664251Y-44379500D03*
D12*
X26204251Y-39299500D03*
D13*
X23664251Y-44379500D03*
D14*
X28744251Y-44379500D03*
X18584251Y-44379500D03*
D16*
X46995251Y-32924750D03*
D17*
X39195251Y-32924750D03*
D14*
X48175251Y-25043750D03*
X38015251Y-25043750D03*
D12*
X39285251Y-22503750D03*
D13*
X43095251Y-25043750D03*
D12*
X45635251Y-19963750D03*
D13*
X43095251Y-25043750D03*
D14*
X48175251Y-25043750D03*
X38015251Y-25043750D03*
X18584251Y-25043750D03*
X28744251Y-25043750D03*
D13*
X23664251Y-25043750D03*
D12*
X26204251Y-19963750D03*
D13*
X23664251Y-25043750D03*
D12*
X19854251Y-22503750D03*
D14*
X18584251Y-25043750D03*
X28744251Y-25043750D03*
D17*
X19759000Y-32924750D03*
D16*
X27559000Y-32924750D03*
M02*
